<?xml version="1.0" encoding="UTF-8" standalone="no"?>
<svg
   viewBox="0 0 16 16"
   enable-background="new 0 0 16 16"
   version="1.1"
   id="svg8"
   sodipodi:docname="Cube_16x.svg"
   inkscape:version="1.2.2 (732a01da63, 2022-12-09)"
   xmlns:inkscape="http://www.inkscape.org/namespaces/inkscape"
   xmlns:sodipodi="http://sodipodi.sourceforge.net/DTD/sodipodi-0.dtd"
   xmlns="http://www.w3.org/2000/svg"
   xmlns:svg="http://www.w3.org/2000/svg">
  <defs
     id="defs12" />
  <sodipodi:namedview
     id="namedview10"
     pagecolor="#ffffff"
     bordercolor="#666666"
     borderopacity="1.0"
     inkscape:showpageshadow="2"
     inkscape:pageopacity="0.0"
     inkscape:pagecheckerboard="0"
     inkscape:deskcolor="#d1d1d1"
     showgrid="false"
     inkscape:zoom="52.3125"
     inkscape:cx="7.2544803"
     inkscape:cy="8.0095579"
     inkscape:window-width="1920"
     inkscape:window-height="1017"
     inkscape:window-x="-8"
     inkscape:window-y="-8"
     inkscape:window-maximized="1"
     inkscape:current-layer="svg8" />
  <style
     type="text/css"
     id="style2">.icon-canvas-transparent{opacity:0;fill:#F6F6F6;} .icon-vs-out{fill:#F6F6F6;} .icon-vs-bg{fill:#424242;} .icon-vs-fg{fill:#F0EFF1;}</style>
  <path
     class="icon-canvas-transparent"
     d="M 16,16 H 0 V 0 h 16 z"
     id="canvas"
     style="display:none" />
  <path
     class="icon-vs-out"
     d="m 15,3.349 v 8.403 L 8.975,16 H 8.07 L 1,11.582 V 3.327 L 7.595,0 h 1.118 z"
     id="outline"
     style="display:none" />
  <path
     class="icon-vs-fg"
     d="M 12.715,4.398 8.487,7.02 3.565,4.272 8.143,1.963 Z M 3,5.102 8,7.894 v 5.705 L 3,10.473 Z m 6,8.434 V 7.878 l 4,-2.48 v 5.318 z"
     id="iconFg"
     style="display:none" />
  <path
     class="icon-vs-bg"
     d="M 8.156,0.837 2,3.942 v 7.085 L 8.517,15.1 14,11.233 V 3.95 Z M 12.715,4.398 8.487,7.02 3.565,4.272 8.143,1.963 Z M 3,5.102 8,7.894 v 5.705 L 3,10.473 Z m 6,8.434 V 7.878 l 4,-2.48 v 5.318 z"
     id="iconBg"
     style="display:inline;fill:#ffffff;fill-opacity:1" />
</svg>
