<?xml version="1.0" encoding="UTF-8" standalone="no"?>
<svg
   xmlns:dc="http://purl.org/dc/elements/1.1/"
   xmlns:cc="http://creativecommons.org/ns#"
   xmlns:rdf="http://www.w3.org/1999/02/22-rdf-syntax-ns#"
   xmlns:svg="http://www.w3.org/2000/svg"
   xmlns="http://www.w3.org/2000/svg"
   xmlns:sodipodi="http://sodipodi.sourceforge.net/DTD/sodipodi-0.dtd"
   xmlns:inkscape="http://www.inkscape.org/namespaces/inkscape"
   width="24.0px"
   height="24.0px"
   viewBox="0 0 24.0 24.0"
   version="1.1"
   id="SVGRoot"
   sodipodi:docname="eye_invisible.svg"
   inkscape:version="1.0.1 (3bc2e813f5, 2020-09-07)">
  <defs
     id="defs936">
    <filter
       id="filter-1">
      <feColorMatrix
         in="SourceGraphic"
         type="matrix"
         values="0 0 0 0 1.000000 0 0 0 0 1.000000 0 0 0 0 1.000000 0 0 0 1.000000 0"
         id="feColorMatrix4" />
    </filter>
    <filter
       id="filter1532">
      <feColorMatrix
         in="SourceGraphic"
         type="matrix"
         values="0 0 0 0 1.000000 0 0 0 0 1.000000 0 0 0 0 1.000000 0 0 0 1.000000 0"
         id="feColorMatrix1530" />
    </filter>
    <filter
       id="filter1536">
      <feColorMatrix
         in="SourceGraphic"
         type="matrix"
         values="0 0 0 0 1.000000 0 0 0 0 1.000000 0 0 0 0 1.000000 0 0 0 1.000000 0"
         id="feColorMatrix1534" />
    </filter>
    <filter
       id="filter1540">
      <feColorMatrix
         in="SourceGraphic"
         type="matrix"
         values="0 0 0 0 1.000000 0 0 0 0 1.000000 0 0 0 0 1.000000 0 0 0 1.000000 0"
         id="feColorMatrix1538" />
    </filter>
    <filter
       id="filter1544">
      <feColorMatrix
         in="SourceGraphic"
         type="matrix"
         values="0 0 0 0 1.000000 0 0 0 0 1.000000 0 0 0 0 1.000000 0 0 0 1.000000 0"
         id="feColorMatrix1542" />
    </filter>
  </defs>
  <sodipodi:namedview
     id="base"
     pagecolor="#ffffff"
     bordercolor="#666666"
     borderopacity="1.0"
     inkscape:pageopacity="0.0"
     inkscape:pageshadow="2"
     inkscape:zoom="11.2"
     inkscape:cx="19.818756"
     inkscape:cy="15.08195"
     inkscape:document-units="px"
     inkscape:current-layer="layer1"
     inkscape:document-rotation="0"
     showgrid="true"
     inkscape:window-width="1920"
     inkscape:window-height="1017"
     inkscape:window-x="-8"
     inkscape:window-y="-8"
     inkscape:window-maximized="1">
    <inkscape:grid
       type="xygrid"
       id="grid1506" />
  </sodipodi:namedview>
  <metadata
     id="metadata939">
    <rdf:RDF>
      <cc:Work
         rdf:about="">
        <dc:format>image/svg+xml</dc:format>
        <dc:type
           rdf:resource="http://purl.org/dc/dcmitype/StillImage" />
        <dc:title />
      </cc:Work>
    </rdf:RDF>
  </metadata>
  <g
     inkscape:label="图层 1"
     inkscape:groupmode="layer"
     id="layer1">
    <path
       id="形状"
       style="fill:#ffffff;fill-opacity:1;fill-rule:evenodd;stroke:none;stroke-width:1"
       d="M 12 8.7753906 C 10.21818 8.7753906 8.7753906 10.21818 8.7753906 12 C 8.7753906 12.524905 8.9126099 13.013374 9.1347656 13.451172 L 10.480469 12.105469 C 10.478636 12.069722 10.472656 12.036819 10.472656 12 C 10.472656 11.06666 11.15152 10.472656 12 10.472656 C 12.035553 10.472656 12.068596 10.480076 12.103516 10.482422 L 13.451172 9.1347656 C 13.013374 8.9126087 12.524905 8.7753906 12 8.7753906 z M 14.865234 10.548828 L 13.517578 11.896484 C 13.519924 11.931404 13.527344 11.964447 13.527344 12 C 13.527344 12.84848 12.84849 13.527344 12 13.527344 C 11.963181 13.527344 11.930278 13.521364 11.894531 13.519531 L 10.548828 14.865234 C 10.986626 15.08739 11.475095 15.224609 12 15.224609 C 13.78182 15.224609 15.224609 13.78182 15.224609 12 C 15.224609 11.475095 15.08739 10.986627 14.865234 10.548828 z " />
    <path
       id="path10-8"
       style="fill:#ffffff;fill-opacity:1;fill-rule:evenodd;stroke:none;stroke-width:1"
       d="M 12 5.0429688 C 7.75758 5.0429688 4.0235856 7.7582138 2.6660156 11.746094 C 2.5812156 11.915794 2.5812156 12.084216 2.6660156 12.253906 C 3.2495384 14.082289 4.3548668 15.63868 5.7929688 16.792969 L 7.0292969 15.556641 C 5.8678981 14.651373 4.955468 13.440849 4.4492188 12 C 5.5522587 8.8606 8.60606 6.7402344 12 6.7402344 C 13.136047 6.7402344 14.207317 6.9844232 15.1875 7.3984375 L 16.488281 6.0976562 C 15.138462 5.4197339 13.610637 5.0429688 12 5.0429688 z M 18.207031 7.2070312 L 16.970703 8.4433594 C 18.132101 9.3486286 19.044537 10.559147 19.550781 12 C 18.447751 15.13939 15.39394 17.259766 12 17.259766 C 10.863953 17.259766 9.7926838 17.015576 8.8125 16.601562 L 7.5117188 17.902344 C 8.8615375 18.580266 10.389363 18.957031 12 18.957031 C 16.24242 18.957031 19.976414 16.241786 21.333984 12.253906 C 21.418784 12.084216 21.418784 11.915794 21.333984 11.746094 C 20.750462 9.9177112 19.645133 8.3613202 18.207031 7.2070312 z " />
    <path
       style="fill:#ffffff;stroke:#ffffff;stroke-width:2;stroke-linecap:round;stroke-linejoin:miter;stroke-miterlimit:4;stroke-dasharray:none;stroke-opacity:1;fill-opacity:1"
       d="M 3.7,19.4 19.3,3.8"
       id="path864"
       sodipodi:nodetypes="cc" />
  </g>
</svg>
