<?xml version="1.0" encoding="UTF-8" standalone="no"?>
<svg
   xmlns:dc="http://purl.org/dc/elements/1.1/"
   xmlns:cc="http://creativecommons.org/ns#"
   xmlns:rdf="http://www.w3.org/1999/02/22-rdf-syntax-ns#"
   xmlns:svg="http://www.w3.org/2000/svg"
   xmlns="http://www.w3.org/2000/svg"
   xmlns:sodipodi="http://sodipodi.sourceforge.net/DTD/sodipodi-0.dtd"
   xmlns:inkscape="http://www.inkscape.org/namespaces/inkscape"
   width="24.0px"
   height="24.0px"
   viewBox="0 0 24.0 24.0"
   version="1.1"
   id="SVGRoot"
   sodipodi:docname="eye_visible.svg"
   inkscape:version="1.0.1 (3bc2e813f5, 2020-09-07)">
  <defs
     id="defs1447" />
  <sodipodi:namedview
     id="base"
     pagecolor="#ffffff"
     bordercolor="#666666"
     borderopacity="1.0"
     inkscape:pageopacity="0.0"
     inkscape:pageshadow="2"
     inkscape:zoom="15.839192"
     inkscape:cx="13.38914"
     inkscape:cy="19.513641"
     inkscape:document-units="px"
     inkscape:current-layer="layer1"
     inkscape:document-rotation="0"
     showgrid="true"
     inkscape:window-width="1301"
     inkscape:window-height="1040"
     inkscape:window-x="104"
     inkscape:window-y="0"
     inkscape:window-maximized="0">
    <inkscape:grid
       type="xygrid"
       id="grid2017" />
  </sodipodi:namedview>
  <metadata
     id="metadata1450">
    <rdf:RDF>
      <cc:Work
         rdf:about="">
        <dc:format>image/svg+xml</dc:format>
        <dc:type
           rdf:resource="http://purl.org/dc/dcmitype/StillImage" />
        <dc:title></dc:title>
      </cc:Work>
    </rdf:RDF>
  </metadata>
  <g
     inkscape:label="图层 1"
     inkscape:groupmode="layer"
     id="layer1">
    <g
       id="g1434"
       transform="translate(-3,-2.042425)"
       style="fill:#ffffff;fill-opacity:1">
      <path
         d="m 15,17.26667 c -1.78182,0 -3.22424,-1.44242 -3.22424,-3.22424 0,-1.78182 1.44242,-3.22425 3.22424,-3.22425 1.78182,0 3.22424,1.44243 3.22424,3.22425 0,1.78182 -1.44242,3.22424 -3.22424,3.22424 z m 0,-4.75152 c -0.84848,0 -1.52727,0.59394 -1.52727,1.52728 0,0.93333 0.59394,1.52727 1.52727,1.52727 0.84849,0 1.52727,-0.67879 1.52727,-1.52727 0,-0.84849 -0.67878,-1.52728 -1.52727,-1.52728 z"
         id="形状"
         fill="#000000"
         fill-rule="nonzero"
         style="fill:#ffffff;fill-opacity:1;fill-rule:evenodd;stroke:none;stroke-width:1" />
      <path
         d="m 15,21 c -4.32727,0 -8.06061,-2.71515 -9.33333,-6.70303 -0.0848,-0.16969 -0.0848,-0.33939 0,-0.50909 C 7.02424,9.8 10.75758,7.08485 15,7.08485 c 4.32727,0 8.06061,2.71515 9.33333,6.70303 0.0848,0.1697 0.0848,0.3394 0,0.50909 C 22.97576,18.28485 19.24242,21 15,21 Z M 7.44848,14.04243 c 1.10304,3.13939 4.07273,5.2606 7.55152,5.2606 3.39394,0 6.44848,-2.12121 7.55151,-5.2606 C 21.44848,10.90303 18.47879,8.78182 15,8.78182 c -3.39394,0 -6.44848,2.12121 -7.55152,5.26061 z"
         id="path10"
         fill="#000000"
         fill-rule="nonzero"
         style="fill:#ffffff;fill-opacity:1;fill-rule:evenodd;stroke:none;stroke-width:1" />
    </g>
  </g>
</svg>
