<?xml version="1.0" encoding="UTF-8" standalone="no"?>
<svg
   xmlns:dc="http://purl.org/dc/elements/1.1/"
   xmlns:cc="http://creativecommons.org/ns#"
   xmlns:rdf="http://www.w3.org/1999/02/22-rdf-syntax-ns#"
   xmlns:svg="http://www.w3.org/2000/svg"
   xmlns="http://www.w3.org/2000/svg"
   xmlns:sodipodi="http://sodipodi.sourceforge.net/DTD/sodipodi-0.dtd"
   xmlns:inkscape="http://www.inkscape.org/namespaces/inkscape"
   width="24.0px"
   height="24.0px"
   viewBox="0 0 24.0 24.0"
   version="1.1"
   id="SVGRoot"
   sodipodi:docname="hand_touchable.svg"
   inkscape:version="1.0.1 (3bc2e813f5, 2020-09-07)">
  <defs
     id="defs851">
    <filter
       id="filter-1">
      <feColorMatrix
         in="SourceGraphic"
         type="matrix"
         values="0 0 0 0 1.000000 0 0 0 0 1.000000 0 0 0 0 1.000000 0 0 0 1.000000 0"
         id="feColorMatrix4" />
    </filter>
  </defs>
  <sodipodi:namedview
     id="base"
     pagecolor="#ffffff"
     bordercolor="#666666"
     borderopacity="1.0"
     inkscape:pageopacity="0.0"
     inkscape:pageshadow="2"
     inkscape:zoom="15.839192"
     inkscape:cx="15.38072"
     inkscape:cy="15.288223"
     inkscape:document-units="px"
     inkscape:current-layer="layer1"
     inkscape:document-rotation="0"
     showgrid="true"
     inkscape:window-width="1920"
     inkscape:window-height="1017"
     inkscape:window-x="-8"
     inkscape:window-y="-8"
     inkscape:window-maximized="1">
    <inkscape:grid
       type="xygrid"
       id="grid1421" />
  </sodipodi:namedview>
  <metadata
     id="metadata854">
    <rdf:RDF>
      <cc:Work
         rdf:about="">
        <dc:format>image/svg+xml</dc:format>
        <dc:type
           rdf:resource="http://purl.org/dc/dcmitype/StillImage" />
        <dc:title></dc:title>
      </cc:Work>
    </rdf:RDF>
  </metadata>
  <g
     inkscape:label="图层 1"
     inkscape:groupmode="layer"
     id="layer1">
    <path
       d="m 19.470775,8.3635172 h -0.0583 c -0.429416,0 -0.781634,0.117292 -1.120731,0.317473 -0.297223,-0.824954 -1.052591,-1.41926 -2.025543,-1.41926 -0.429416,0 -0.839937,0.117292 -1.179034,0.317473 -0.297226,-0.824977 -1.052594,-1.419238 -2.026368,-1.419238 -0.379327,0 -0.732389,0.09071 -1.044376,0.249449 v -2.12301 c 0,-1.15651 -0.918756,-2.093302 -2.141307,-2.093302 -1.22255,0 -2.214374,0.937574 -2.214374,2.093302 V 12.414052 L 6.316678,11.138686 c -0.864582,-0.817913 -2.395012,-0.701404 -3.131486,0 -0.736497,0.701426 -1.219265,2.112057 -0.16503,3.116872 l 6.184178,5.850596 c 0.127264,0.120422 0.267672,0.221305 0.41545,0.306519 1.127303,0.875788 2.419658,1.394223 5.151303,1.394223 6.240815,0 6.818855,-3.206802 6.818855,-7.16193 v -4.187364 c -8.69e-4,-1.1565098 -0.8958,-2.0940848 -2.119173,-2.0940848 m 0.952415,6.2806668 c 0,3.346761 -0.01643,6.060165 -5.652965,6.060165 -2.387619,0 -3.821181,-0.5067 -4.907431,-1.534204 L 4.008676,13.631567 c -0.518069,-0.493399 -0.387519,-1.123672 0.03612,-1.527945 0.423665,-0.403491 1.202013,-0.417552 1.611712,-0.03049 0,0 1.027148,0.971977 1.912245,1.810232 0.419092,0.397155 0.838376,0.794126 1.257853,1.190913 V 4.5069272 c 0,-0.547362 0.469646,-0.991515 1.049305,-0.991515 0.579659,0 0.975417,0.444153 0.975417,0.991515 v 6.7216888 h 0.0115 c -0.0076,0.0363 -0.01146,0.07323 -0.0115,0.11025 0,0.304172 0.2611,0.551274 0.582945,0.551274 0.321845,0 0.582945,-0.246319 0.582945,-0.551274 0,-0.03753 -0.0041,-0.07428 -0.0115,-0.11025 h 0.0115 V 8.4737902 c 0,-0.547362 0.418736,-0.991514 0.998395,-0.991514 0,0 1.026303,-0.0133 1.026303,0.991514 v 3.6360908 h 0.0115 c -0.0076,0.0363 -0.01146,0.07323 -0.0115,0.11025 0,0.304194 0.2611,0.551274 0.582945,0.551274 0.321845,0 0.582945,-0.24632 0.582945,-0.551274 0,-0.03753 -0.0041,-0.07428 -0.0115,-0.11025 h 0.0115 V 9.5755552 c 0,-0.547362 0.412164,-0.991515 0.991823,-0.991515 0,0 1.047663,0.06257 1.047663,0.991515 v 3.1958498 h 0.0115 c -0.0076,0.0363 -0.01146,0.07323 -0.0115,0.11025 0,0.304172 0.2611,0.551274 0.582945,0.551274 0.321845,0 0.568157,-0.24632 0.568157,-0.551274 0,-0.03753 -0.0041,-0.07428 -0.01068,-0.11025 h 0.01068 v -2.181646 c 0,-0.547384 0.431881,-0.9915148 1.01154,-0.9915148 0,0 1.015647,-0.0391 1.015647,0.9915148 v 4.054447 h -0.0024"
       id="形状"
       fill="#000000"
       fill-rule="nonzero"
       style="fill:#ff0000;fill-opacity:1;stroke:none;stroke-width:1;stroke-opacity:1;filter:url(#filter-1)" />
  </g>
</svg>
