<?xml version="1.0" encoding="UTF-8" standalone="no"?>
<svg
   xmlns:dc="http://purl.org/dc/elements/1.1/"
   xmlns:cc="http://creativecommons.org/ns#"
   xmlns:rdf="http://www.w3.org/1999/02/22-rdf-syntax-ns#"
   xmlns:svg="http://www.w3.org/2000/svg"
   xmlns="http://www.w3.org/2000/svg"
   xmlns:sodipodi="http://sodipodi.sourceforge.net/DTD/sodipodi-0.dtd"
   xmlns:inkscape="http://www.inkscape.org/namespaces/inkscape"
   width="24.0px"
   height="24.0px"
   viewBox="0 0 24.0 24.0"
   version="1.1"
   id="SVGRoot"
   sodipodi:docname="hand_untouchable.svg"
   inkscape:version="1.0.1 (3bc2e813f5, 2020-09-07)">
  <defs
     id="defs855">
    <filter
       id="filter-1">
      <feColorMatrix
         in="SourceGraphic"
         type="matrix"
         values="0 0 0 0 1.000000 0 0 0 0 1.000000 0 0 0 0 1.000000 0 0 0 1.000000 0"
         id="feColorMatrix4" />
    </filter>
  </defs>
  <sodipodi:namedview
     id="base"
     pagecolor="#ffffff"
     bordercolor="#666666"
     borderopacity="1.0"
     inkscape:pageopacity="0.0"
     inkscape:pageshadow="2"
     inkscape:zoom="22.4"
     inkscape:cx="11.889961"
     inkscape:cy="14.759795"
     inkscape:document-units="px"
     inkscape:current-layer="layer1"
     inkscape:document-rotation="0"
     showgrid="true"
     inkscape:window-width="1920"
     inkscape:window-height="1017"
     inkscape:window-x="-8"
     inkscape:window-y="-8"
     inkscape:window-maximized="1">
    <inkscape:grid
       type="xygrid"
       id="grid1425" />
  </sodipodi:namedview>
  <metadata
     id="metadata858">
    <rdf:RDF>
      <cc:Work
         rdf:about="">
        <dc:format>image/svg+xml</dc:format>
        <dc:type
           rdf:resource="http://purl.org/dc/dcmitype/StillImage" />
        <dc:title></dc:title>
      </cc:Work>
    </rdf:RDF>
  </metadata>
  <g
     inkscape:label="图层 1"
     inkscape:groupmode="layer"
     id="layer1">
    <g
       id="页面-1"
       stroke="none"
       stroke-width="1"
       fill="none"
       fill-rule="evenodd"
       transform="translate(1.4487758,0.67668739)">
      <g
         id="二次备份-5"
         transform="translate(-183,-282)"
         fill="#ffffff">
        <g
           id="点击_选中"
           transform="translate(183.96178,282.81369)">
          <path
             d="m 15.881207,7.1906133 c 0.290654,-0.1715834 0.590948,-0.2822689 0.941234,-0.3103916 l 0.179496,-0.00708 h 0.0583 c 1.170182,1e-7 2.039863,0.8578185 2.114035,1.9445359 l 0.0051,0.1495485 -5.23e-4,4.3878149 c -0.0207,3.862461 -0.683293,6.961479 -6.818331,6.961479 -2.731645,0 -4.0240007,-0.518435 -5.1513029,-1.394223 C 7.1106961,18.865487 7.015453,18.801714 6.9251962,18.72983 l -0.1314315,-0.114052 -2.1212894,-2.006052 0.831,-0.774 1.948743,1.844043 c 1.0862501,1.027504 2.519812,1.534204 4.9074307,1.534204 5.535882,0 5.650586,-2.617362 5.652917,-5.881492 l 4.8e-5,-0.178651 h 0.0024 V 9.0993824 c 0,-1.0306119 -1.015647,-0.9915146 -1.015647,-0.9915146 -0.538255,0 -0.949088,0.3829493 -1.005032,0.8759227 l -0.0065,0.1155919 v 2.1816456 h -0.01068 c 0.0066,0.03597 0.01068,0.07272 0.01068,0.11025 0,0.304954 -0.246313,0.551274 -0.568158,0.551274 -0.321845,0 -0.582945,-0.247102 -0.582945,-0.551274 l 0.0029,-0.05539 v 0 l 0.0086,-0.05486 h -0.0115 V 8.0851784 c 0,-0.3163947 -0.121534,-0.5322851 -0.281815,-0.6794304 l 0.945678,-0.8805896 c 0.163188,0.1950209 0.29216,0.4200309 0.380584,0.6654549 z M 7.464582,0.70272523 c 1.1693963,0 2.0608401,0.85710267 2.1361464,1.94375777 l 0.00516,0.1495442 V 4.9190377 C 9.917875,4.7603015 10.270937,4.6695886 10.650265,4.6695886 c 0.973773,0 1.729142,0.5942606 2.026365,1.4192374 0.184366,-0.1088377 0.389845,-0.1931729 0.607996,-0.2474763 l -1.65411,1.5413755 8.69e-4,-0.3993117 c 0,-1.0048154 -1.026303,-0.9915147 -1.026303,-0.9915147 -0.538255,0 -0.9377552,0.3829686 -0.9920805,0.8759268 l -0.00632,0.1155879 -1.7e-4,2.2843117 -1.0179886,0.9473798 C 8.4966474,10.117641 8.4407964,9.989169 8.4407964,9.8484896 l 0.00291,-0.055394 v 0 l 0.00859,-0.054857 h -0.0115 V 3.0165501 c 0,-0.5473617 -0.3957575,-0.9915147 -0.9754164,-0.9915147 -0.5410149,0 -0.986197,0.3869066 -1.0431501,0.8835195 l -0.00616,0.1079952 -5.582e-4,9.2221749 -0.7154992,0.667493 C 5.5193831,12.735175 5.3387849,12.564098 5.1582223,12.392986 4.2731254,11.554731 3.2459772,10.582754 3.2459772,10.582754 2.8362774,10.195693 2.05793,10.209754 1.6342645,10.613245 1.2388654,10.990566 1.0987819,11.564759 1.5030706,12.040793 l 0.095071,0.100397 2.4413748,2.310535 -0.83,0.773 -2.59988844,-2.459544 C -0.44460673,11.760366 0.03816065,10.349735 0.77465788,9.6483089 1.4760615,8.9803055 2.8976067,8.8428184 3.7782605,9.5377831 l 0.1278837,0.1105258 1.344064,1.2753671 V 2.7960272 c 0,-1.1557277 0.9918232,-2.09330197 2.2143738,-2.09330197 z m 5.331934,8.34099997 7.59e-4,1.5757788 h -0.0115 c 0.0074,0.03597 0.0115,0.07272 0.0115,0.11025 0,0.304954 -0.2611,0.551274 -0.582945,0.551274 -0.321845,0 -0.582945,-0.24708 -0.582945,-0.551274 l 0.0029,-0.05539 v 0 l 0.0086,-0.05486 h -0.0115 l -8.69e-4,-0.489779 z"
             id="形状结合"
             fill-rule="nonzero" />
          <rect
             id="矩形备份-8"
             transform="rotate(45,9.191904,10.217894)"
             x="8.1919041"
             y="-1.7821058"
             width="2"
             height="24"
             rx="1" />
        </g>
      </g>
    </g>
  </g>
</svg>
